# xmcd CD database file
#
# Track frame offsets:
#	151
#	11810
#	22028
#	34276
#	45993
#	57368
#	70029
#	81125
#	93629
#	105366
#	116457
#	127621
#	140440
#	156664
#	169201
#	180270
#	191689
#	204387
#	215966
#	228318
#	240775
#	253864
#	266190
#	278437
#
# Disc length: 3863 seconds
#
# Revision: 0
# Processed by: cddbd v1.5.2PL0 Copyright (c) Steve Scherf et al.
# Submitted via: CDex 1.70beta2
#
DISCID=4c0f1518
DTITLE=Ernst Mosch - Portrait in Gold (2LPs)
DYEAR=1972
DGENRE=Blasmusik
TTITLE0=Du, nur du (Polka)
TTITLE1=Urlaubswalzer
TTITLE2=Sterne der Heimat (Polka)
TTITLE3=Eva-Marie (Walzer)
TTITLE4=Dompfaff (Polka)
TTITLE5=Eine stille Stunde (Polka)
TTITLE6=Feinschmecker (Polka)
TTITLE7=Liebe für's ganze Leben (Walzer)
TTITLE8=Gucku-rucku-ku (Polka)
TTITLE9=Lerchenwalzer
TTITLE10=Bergblumen (Polka)
TTITLE11=Mondschein an der Eger (Walzer)
TTITLE12=Gablonzer Perlen (Polka)
TTITLE13=Moldau-Walzer
TTITLE14=Saazer Hopfen (Polka)
TTITLE15=Der Wind singt dir ein Liebeslied (Walzer)
TTITLE16=Südböhmische Polka
TTITLE17=Wenn zwei Herzen fragen (Walzer)
TTITLE18=Egerländer Musikanten spielen (Polka)
TTITLE19=Tränen der Liebe (Walzer)
TTITLE20=Du, mein Liebling (Polka)
TTITLE21=Hubertus-Walzer
TTITLE22=Rosen sind wie du (Polka)
TTITLE23=Aufgalopp
EXTD=YEAR: 1972
EXTT0=
EXTT1=
EXTT2=
EXTT3=
EXTT4=
EXTT5=
EXTT6=
EXTT7=
EXTT8=
EXTT9=
EXTT10=
EXTT11=
EXTT12=
EXTT13=
EXTT14=
EXTT15=
EXTT16=
EXTT17=
EXTT18=
EXTT19=
EXTT20=
EXTT21=
EXTT22=
EXTT23=
PLAYORDER=
